<svg id="visual" viewBox="0 0 3840 2160" width="3840" height="2160" xmlns="http://www.w3.org/2000/svg" xmlns:xlink="http://www.w3.org/1999/xlink" version="1.1"><path d="M0 325L45.7 317.8C91.3 310.7 182.7 296.3 274.2 336C365.7 375.7 457.3 469.3 548.8 512.5C640.3 555.7 731.7 548.3 823 523C914.3 497.7 1005.7 454.3 1097 447.2C1188.3 440 1279.7 469 1371.2 465.5C1462.7 462 1554.3 426 1645.8 397.2C1737.3 368.3 1828.7 346.7 1920 346.7C2011.3 346.7 2102.7 368.3 2194.2 390C2285.7 411.7 2377.3 433.3 2468.8 454.8C2560.3 476.3 2651.7 497.7 2743 479.7C2834.3 461.7 2925.7 404.3 3017 404.3C3108.3 404.3 3199.7 461.7 3291.2 486.8C3382.7 512 3474.3 505 3565.8 472.7C3657.3 440.3 3748.7 382.7 3794.3 353.8L3840 325L3840 0L3794.3 0C3748.7 0 3657.3 0 3565.8 0C3474.3 0 3382.7 0 3291.2 0C3199.7 0 3108.3 0 3017 0C2925.7 0 2834.3 0 2743 0C2651.7 0 2560.3 0 2468.8 0C2377.3 0 2285.7 0 2194.2 0C2102.7 0 2011.3 0 1920 0C1828.7 0 1737.3 0 1645.8 0C1554.3 0 1462.7 0 1371.2 0C1279.7 0 1188.3 0 1097 0C1005.7 0 914.3 0 823 0C731.7 0 640.3 0 548.8 0C457.3 0 365.7 0 274.2 0C182.7 0 91.3 0 45.7 0L0 0Z" fill="#0c4a6e"></path><path d="M0 433L45.7 425.8C91.3 418.7 182.7 404.3 274.2 444C365.7 483.7 457.3 577.3 548.8 620.5C640.3 663.7 731.7 656.3 823 620.3C914.3 584.3 1005.7 519.7 1097 512.5C1188.3 505.3 1279.7 555.7 1371.2 552C1462.7 548.3 1554.3 490.7 1645.8 461.8C1737.3 433 1828.7 433 1920 433C2011.3 433 2102.7 433 2194.2 454.7C2285.7 476.3 2377.3 519.7 2468.8 548.5C2560.3 577.3 2651.7 591.7 2743 573.7C2834.3 555.7 2925.7 505.3 3017 508.8C3108.3 512.3 3199.7 569.7 3291.2 584C3382.7 598.3 3474.3 569.7 3565.8 530.2C3657.3 490.7 3748.7 440.3 3794.3 415.2L3840 390L3840 323L3794.3 351.8C3748.7 380.7 3657.3 438.3 3565.8 470.7C3474.3 503 3382.7 510 3291.2 484.8C3199.7 459.7 3108.3 402.3 3017 402.3C2925.7 402.3 2834.3 459.7 2743 477.7C2651.7 495.7 2560.3 474.3 2468.8 452.8C2377.3 431.3 2285.7 409.7 2194.2 388C2102.7 366.3 2011.3 344.7 1920 344.7C1828.7 344.7 1737.3 366.3 1645.8 395.2C1554.3 424 1462.7 460 1371.2 463.5C1279.7 467 1188.3 438 1097 445.2C1005.7 452.3 914.3 495.7 823 521C731.7 546.3 640.3 553.7 548.8 510.5C457.3 467.3 365.7 373.7 274.2 334C182.7 294.3 91.3 308.7 45.7 315.8L0 323Z" fill="#29678d"></path><path d="M0 519L45.7 511.8C91.3 504.7 182.7 490.3 274.2 526.3C365.7 562.3 457.3 648.7 548.8 691.8C640.3 735 731.7 735 823 709.8C914.3 684.7 1005.7 634.3 1097 630.8C1188.3 627.3 1279.7 670.7 1371.2 663.5C1462.7 656.3 1554.3 598.7 1645.8 566.2C1737.3 533.7 1828.7 526.3 1920 526.3C2011.3 526.3 2102.7 533.7 2194.2 551.7C2285.7 569.7 2377.3 598.3 2468.8 620C2560.3 641.7 2651.7 656.3 2743 645.7C2834.3 635 2925.7 599 3017 613.3C3108.3 627.7 3199.7 692.3 3291.2 699.5C3382.7 706.7 3474.3 656.3 3565.8 606C3657.3 555.7 3748.7 505.3 3794.3 480.2L3840 455L3840 388L3794.3 413.2C3748.7 438.3 3657.3 488.7 3565.8 528.2C3474.3 567.7 3382.7 596.3 3291.2 582C3199.7 567.7 3108.3 510.3 3017 506.8C2925.7 503.3 2834.3 553.7 2743 571.7C2651.7 589.7 2560.3 575.3 2468.8 546.5C2377.3 517.7 2285.7 474.3 2194.2 452.7C2102.7 431 2011.3 431 1920 431C1828.7 431 1737.3 431 1645.8 459.8C1554.3 488.7 1462.7 546.3 1371.2 550C1279.7 553.7 1188.3 503.3 1097 510.5C1005.7 517.7 914.3 582.3 823 618.3C731.7 654.3 640.3 661.7 548.8 618.5C457.3 575.3 365.7 481.7 274.2 442C182.7 402.3 91.3 416.7 45.7 423.8L0 431Z" fill="#4285ad"></path><path d="M0 606L45.7 616.8C91.3 627.7 182.7 649.3 274.2 699.7C365.7 750 457.3 829 548.8 865C640.3 901 731.7 894 823 861.7C914.3 829.3 1005.7 771.7 1097 757.2C1188.3 742.7 1279.7 771.3 1371.2 760.5C1462.7 749.7 1554.3 699.3 1645.8 685C1737.3 670.7 1828.7 692.3 1920 692.3C2011.3 692.3 2102.7 670.7 2194.2 670.7C2285.7 670.7 2377.3 692.3 2468.8 721.2C2560.3 750 2651.7 786 2743 778.8C2834.3 771.7 2925.7 721.3 3017 724.8C3108.3 728.3 3199.7 785.7 3291.2 807.2C3382.7 828.7 3474.3 814.3 3565.8 764C3657.3 713.7 3748.7 627.3 3794.3 584.2L3840 541L3840 453L3794.3 478.2C3748.7 503.3 3657.3 553.7 3565.8 604C3474.3 654.3 3382.7 704.7 3291.2 697.5C3199.7 690.3 3108.3 625.7 3017 611.3C2925.7 597 2834.3 633 2743 643.7C2651.7 654.3 2560.3 639.7 2468.8 618C2377.3 596.3 2285.7 567.7 2194.2 549.7C2102.7 531.7 2011.3 524.3 1920 524.3C1828.7 524.3 1737.3 531.7 1645.8 564.2C1554.3 596.7 1462.7 654.3 1371.2 661.5C1279.7 668.7 1188.3 625.3 1097 628.8C1005.7 632.3 914.3 682.7 823 707.8C731.7 733 640.3 733 548.8 689.8C457.3 646.7 365.7 560.3 274.2 524.3C182.7 488.3 91.3 502.7 45.7 509.8L0 517Z" fill="#5aa5cd"></path><path d="M0 714L45.7 724.8C91.3 735.7 182.7 757.3 274.2 804.2C365.7 851 457.3 923 548.8 959C640.3 995 731.7 995 823 966.2C914.3 937.3 1005.7 879.7 1097 868.8C1188.3 858 1279.7 894 1371.2 876C1462.7 858 1554.3 786 1645.8 771.5C1737.3 757 1828.7 800 1920 800C2011.3 800 2102.7 757 2194.2 760.7C2285.7 764.3 2377.3 814.7 2468.8 850.7C2560.3 886.7 2651.7 908.3 2743 890.3C2834.3 872.3 2925.7 814.7 3017 825.5C3108.3 836.3 3199.7 915.7 3291.2 940.8C3382.7 966 3474.3 937 3565.8 886.5C3657.3 836 3748.7 764 3794.3 728L3840 692L3840 539L3794.3 582.2C3748.7 625.3 3657.3 711.7 3565.8 762C3474.3 812.3 3382.7 826.7 3291.2 805.2C3199.7 783.7 3108.3 726.3 3017 722.8C2925.7 719.3 2834.3 769.7 2743 776.8C2651.7 784 2560.3 748 2468.8 719.2C2377.3 690.3 2285.7 668.7 2194.2 668.7C2102.7 668.7 2011.3 690.3 1920 690.3C1828.7 690.3 1737.3 668.7 1645.8 683C1554.3 697.3 1462.7 747.7 1371.2 758.5C1279.7 769.3 1188.3 740.7 1097 755.2C1005.7 769.7 914.3 827.3 823 859.7C731.7 892 640.3 899 548.8 863C457.3 827 365.7 748 274.2 697.7C182.7 647.3 91.3 625.7 45.7 614.8L0 604Z" fill="#73c5ef"></path><path d="M0 757L45.7 778.7C91.3 800.3 182.7 843.7 274.2 894C365.7 944.3 457.3 1001.7 548.8 1037.7C640.3 1073.7 731.7 1088.3 823 1059.7C914.3 1031 1005.7 959 1097 937.3C1188.3 915.7 1279.7 944.3 1371.2 929.8C1462.7 915.3 1554.3 857.7 1645.8 846.8C1737.3 836 1828.7 872 1920 868.5C2011.3 865 2102.7 822 2194.2 825.7C2285.7 829.3 2377.3 879.7 2468.8 922.8C2560.3 966 2651.7 1002 2743 980.3C2834.3 958.7 2925.7 879.3 3017 882.8C3108.3 886.3 3199.7 972.7 3291.2 1008.7C3382.7 1044.7 3474.3 1030.3 3565.8 983.7C3657.3 937 3748.7 858 3794.3 818.5L3840 779L3840 690L3794.3 726C3748.7 762 3657.3 834 3565.8 884.5C3474.3 935 3382.7 964 3291.2 938.8C3199.7 913.7 3108.3 834.3 3017 823.5C2925.7 812.7 2834.3 870.3 2743 888.3C2651.7 906.3 2560.3 884.7 2468.8 848.7C2377.3 812.7 2285.7 762.3 2194.2 758.7C2102.7 755 2011.3 798 1920 798C1828.7 798 1737.3 755 1645.8 769.5C1554.3 784 1462.7 856 1371.2 874C1279.7 892 1188.3 856 1097 866.8C1005.7 877.7 914.3 935.3 823 964.2C731.7 993 640.3 993 548.8 957C457.3 921 365.7 849 274.2 802.2C182.7 755.3 91.3 733.7 45.7 722.8L0 712Z" fill="#7dd3fc"></path><path d="M0 822L45.7 843.5C91.3 865 182.7 908 274.2 962C365.7 1016 457.3 1081 548.8 1120.7C640.3 1160.3 731.7 1174.7 823 1156.7C914.3 1138.7 1005.7 1088.3 1097 1074C1188.3 1059.7 1279.7 1081.3 1371.2 1066.8C1462.7 1052.3 1554.3 1001.7 1645.8 987.2C1737.3 972.7 1828.7 994.3 1920 983.7C2011.3 973 2102.7 930 2194.2 940.8C2285.7 951.7 2377.3 1016.3 2468.8 1070.3C2560.3 1124.3 2651.7 1167.7 2743 1138.8C2834.3 1110 2925.7 1009 3017 1001.7C3108.3 994.3 3199.7 1080.7 3291.2 1120.3C3382.7 1160 3474.3 1153 3565.8 1106.3C3657.3 1059.7 3748.7 973.3 3794.3 930.2L3840 887L3840 777L3794.3 816.5C3748.7 856 3657.3 935 3565.8 981.7C3474.3 1028.3 3382.7 1042.7 3291.2 1006.7C3199.7 970.7 3108.3 884.3 3017 880.8C2925.7 877.3 2834.3 956.7 2743 978.3C2651.7 1000 2560.3 964 2468.8 920.8C2377.3 877.7 2285.7 827.3 2194.2 823.7C2102.7 820 2011.3 863 1920 866.5C1828.7 870 1737.3 834 1645.8 844.8C1554.3 855.7 1462.7 913.3 1371.2 927.8C1279.7 942.3 1188.3 913.7 1097 935.3C1005.7 957 914.3 1029 823 1057.7C731.7 1086.3 640.3 1071.7 548.8 1035.7C457.3 999.7 365.7 942.3 274.2 892C182.7 841.7 91.3 798.3 45.7 776.7L0 755Z" fill="#7dd3fc"></path><path d="M0 1124L45.7 1142C91.3 1160 182.7 1196 274.2 1242.8C365.7 1289.7 457.3 1347.3 548.8 1372.5C640.3 1397.7 731.7 1390.3 823 1368.7C914.3 1347 1005.7 1311 1097 1325.5C1188.3 1340 1279.7 1405 1371.2 1387C1462.7 1369 1554.3 1268 1645.8 1224.8C1737.3 1181.7 1828.7 1196.3 1920 1203.7C2011.3 1211 2102.7 1211 2194.2 1221.7C2285.7 1232.3 2377.3 1253.7 2468.8 1293.2C2560.3 1332.7 2651.7 1390.3 2743 1383.2C2834.3 1376 2925.7 1304 3017 1318.5C3108.3 1333 3199.7 1434 3291.2 1455.7C3382.7 1477.3 3474.3 1419.7 3565.8 1354.8C3657.3 1290 3748.7 1218 3794.3 1182L3840 1146L3840 885L3794.3 928.2C3748.7 971.3 3657.3 1057.7 3565.8 1104.3C3474.3 1151 3382.7 1158 3291.2 1118.3C3199.7 1078.7 3108.3 992.3 3017 999.7C2925.7 1007 2834.3 1108 2743 1136.8C2651.7 1165.7 2560.3 1122.3 2468.8 1068.3C2377.3 1014.3 2285.7 949.7 2194.2 938.8C2102.7 928 2011.3 971 1920 981.7C1828.7 992.3 1737.3 970.7 1645.8 985.2C1554.3 999.7 1462.7 1050.3 1371.2 1064.8C1279.7 1079.3 1188.3 1057.7 1097 1072C1005.7 1086.3 914.3 1136.7 823 1154.7C731.7 1172.7 640.3 1158.3 548.8 1118.7C457.3 1079 365.7 1014 274.2 960C182.7 906 91.3 863 45.7 841.5L0 820Z" fill="#73c5ef"></path><path d="M0 1297L45.7 1318.7C91.3 1340.3 182.7 1383.7 274.2 1437.7C365.7 1491.7 457.3 1556.3 548.8 1585C640.3 1613.7 731.7 1606.3 823 1581.2C914.3 1556 1005.7 1513 1097 1520.3C1188.3 1527.7 1279.7 1585.3 1371.2 1570.8C1462.7 1556.3 1554.3 1469.7 1645.8 1412C1737.3 1354.3 1828.7 1325.7 1920 1329.3C2011.3 1333 2102.7 1369 2194.2 1387C2285.7 1405 2377.3 1405 2468.8 1437.3C2560.3 1469.7 2651.7 1534.3 2743 1538C2834.3 1541.7 2925.7 1484.3 3017 1506C3108.3 1527.7 3199.7 1628.3 3291.2 1642.7C3382.7 1657 3474.3 1585 3565.8 1520.2C3657.3 1455.3 3748.7 1397.7 3794.3 1368.8L3840 1340L3840 1144L3794.3 1180C3748.7 1216 3657.3 1288 3565.8 1352.8C3474.3 1417.7 3382.7 1475.3 3291.2 1453.7C3199.7 1432 3108.3 1331 3017 1316.5C2925.7 1302 2834.3 1374 2743 1381.2C2651.7 1388.3 2560.3 1330.7 2468.8 1291.2C2377.3 1251.7 2285.7 1230.3 2194.2 1219.7C2102.7 1209 2011.3 1209 1920 1201.7C1828.7 1194.3 1737.3 1179.7 1645.8 1222.8C1554.3 1266 1462.7 1367 1371.2 1385C1279.7 1403 1188.3 1338 1097 1323.5C1005.7 1309 914.3 1345 823 1366.7C731.7 1388.3 640.3 1395.7 548.8 1370.5C457.3 1345.3 365.7 1287.7 274.2 1240.8C182.7 1194 91.3 1158 45.7 1140L0 1122Z" fill="#5aa5cd"></path><path d="M0 1405L45.7 1423C91.3 1441 182.7 1477 274.2 1527.3C365.7 1577.7 457.3 1642.3 548.8 1678.3C640.3 1714.3 731.7 1721.7 823 1700.2C914.3 1678.7 1005.7 1628.3 1097 1635.5C1188.3 1642.7 1279.7 1707.3 1371.2 1689.3C1462.7 1671.3 1554.3 1570.7 1645.8 1509.5C1737.3 1448.3 1828.7 1426.7 1920 1426.7C2011.3 1426.7 2102.7 1448.3 2194.2 1466.3C2285.7 1484.3 2377.3 1498.7 2468.8 1534.7C2560.3 1570.7 2651.7 1628.3 2743 1628.3C2834.3 1628.3 2925.7 1570.7 3017 1592.2C3108.3 1613.7 3199.7 1714.3 3291.2 1728.7C3382.7 1743 3474.3 1671 3565.8 1613.5C3657.3 1556 3748.7 1513 3794.3 1491.5L3840 1470L3840 1338L3794.3 1366.8C3748.7 1395.7 3657.3 1453.3 3565.8 1518.2C3474.3 1583 3382.7 1655 3291.2 1640.7C3199.7 1626.3 3108.3 1525.7 3017 1504C2925.7 1482.3 2834.3 1539.7 2743 1536C2651.7 1532.3 2560.3 1467.7 2468.8 1435.3C2377.3 1403 2285.7 1403 2194.2 1385C2102.7 1367 2011.3 1331 1920 1327.3C1828.7 1323.7 1737.3 1352.3 1645.8 1410C1554.3 1467.7 1462.7 1554.3 1371.2 1568.8C1279.7 1583.3 1188.3 1525.7 1097 1518.3C1005.7 1511 914.3 1554 823 1579.2C731.7 1604.3 640.3 1611.7 548.8 1583C457.3 1554.3 365.7 1489.7 274.2 1435.7C182.7 1381.7 91.3 1338.3 45.7 1316.7L0 1295Z" fill="#4285ad"></path><path d="M0 1686L45.7 1675.2C91.3 1664.3 182.7 1642.7 274.2 1671.5C365.7 1700.3 457.3 1779.7 548.8 1819.3C640.3 1859 731.7 1859 823 1833.7C914.3 1808.3 1005.7 1757.7 1097 1761.2C1188.3 1764.7 1279.7 1822.3 1371.2 1822.3C1462.7 1822.3 1554.3 1764.7 1645.8 1717.8C1737.3 1671 1828.7 1635 1920 1645.8C2011.3 1656.7 2102.7 1714.3 2194.2 1728.8C2285.7 1743.3 2377.3 1714.7 2468.8 1725.5C2560.3 1736.3 2651.7 1786.7 2743 1797.5C2834.3 1808.3 2925.7 1779.7 3017 1794C3108.3 1808.3 3199.7 1865.7 3291.2 1865.7C3382.7 1865.7 3474.3 1808.3 3565.8 1750.8C3657.3 1693.3 3748.7 1635.7 3794.3 1606.8L3840 1578L3840 1468L3794.3 1489.5C3748.7 1511 3657.3 1554 3565.8 1611.5C3474.3 1669 3382.7 1741 3291.2 1726.7C3199.7 1712.3 3108.3 1611.7 3017 1590.2C2925.7 1568.7 2834.3 1626.3 2743 1626.3C2651.7 1626.3 2560.3 1568.7 2468.8 1532.7C2377.3 1496.7 2285.7 1482.3 2194.2 1464.3C2102.7 1446.3 2011.3 1424.7 1920 1424.7C1828.7 1424.7 1737.3 1446.3 1645.8 1507.5C1554.3 1568.7 1462.7 1669.3 1371.2 1687.3C1279.7 1705.3 1188.3 1640.7 1097 1633.5C1005.7 1626.3 914.3 1676.7 823 1698.2C731.7 1719.7 640.3 1712.3 548.8 1676.3C457.3 1640.3 365.7 1575.7 274.2 1525.3C182.7 1475 91.3 1439 45.7 1421L0 1403Z" fill="#29678d"></path><path d="M0 2161L45.7 2161C91.3 2161 182.7 2161 274.2 2161C365.7 2161 457.3 2161 548.8 2161C640.3 2161 731.7 2161 823 2161C914.3 2161 1005.7 2161 1097 2161C1188.3 2161 1279.7 2161 1371.2 2161C1462.7 2161 1554.3 2161 1645.8 2161C1737.3 2161 1828.7 2161 1920 2161C2011.3 2161 2102.7 2161 2194.2 2161C2285.7 2161 2377.3 2161 2468.8 2161C2560.3 2161 2651.7 2161 2743 2161C2834.3 2161 2925.7 2161 3017 2161C3108.3 2161 3199.7 2161 3291.2 2161C3382.7 2161 3474.3 2161 3565.8 2161C3657.3 2161 3748.7 2161 3794.3 2161L3840 2161L3840 1576L3794.3 1604.8C3748.7 1633.7 3657.3 1691.3 3565.8 1748.8C3474.3 1806.3 3382.7 1863.7 3291.2 1863.7C3199.7 1863.7 3108.3 1806.3 3017 1792C2925.7 1777.7 2834.3 1806.3 2743 1795.5C2651.7 1784.7 2560.3 1734.3 2468.8 1723.5C2377.3 1712.7 2285.7 1741.3 2194.2 1726.8C2102.7 1712.3 2011.3 1654.7 1920 1643.8C1828.7 1633 1737.3 1669 1645.8 1715.8C1554.3 1762.7 1462.7 1820.3 1371.2 1820.3C1279.7 1820.3 1188.3 1762.7 1097 1759.2C1005.7 1755.7 914.3 1806.3 823 1831.7C731.7 1857 640.3 1857 548.8 1817.3C457.3 1777.7 365.7 1698.3 274.2 1669.5C182.7 1640.7 91.3 1662.3 45.7 1673.2L0 1684Z" fill="#0c4a6e"></path></svg>